<svg xmlns="http://www.w3.org/2000/svg" xmlns:xlink="http://www.w3.org/1999/xlink" preserveAspectRatio="xMidYMid" width="257.718" height="156.594" viewBox="0 0 257.718 156.594">
  <defs>
    <style>
      .cls-1 {
        fill: #000;
        fill-rule: evenodd;
      }
    </style>
  </defs>
  <path d="M257.711,155.552 C257.618,155.850 257.387,156.119 257.018,156.359 C256.716,156.555 256.427,156.623 256.150,156.564 C255.873,156.505 254.842,155.100 253.057,152.349 C251.053,149.263 249.558,146.776 248.572,144.888 C247.888,143.615 247.199,142.442 246.501,141.368 C245.805,140.295 244.862,138.952 243.672,137.339 C240.278,132.771 237.600,128.977 235.640,125.957 C234.529,124.246 233.997,123.280 234.045,123.059 C234.115,122.727 234.318,122.452 234.654,122.234 C234.989,122.016 235.323,121.943 235.655,122.013 C236.132,122.086 238.311,124.892 242.192,130.431 C244.057,133.084 245.969,135.920 247.929,138.939 C249.889,141.959 252.125,145.514 254.638,149.606 C256.857,153.173 257.882,155.154 257.711,155.552 ZM235.073,33.074 C235.073,35.354 235.003,36.843 234.863,37.544 C234.723,38.243 234.393,38.613 233.873,38.654 L233.633,38.654 C232.793,38.654 232.233,38.114 231.953,37.034 C231.753,36.233 231.753,35.654 231.953,35.294 C232.153,34.934 232.293,33.534 232.373,31.094 L232.553,27.494 L231.053,25.154 C229.253,22.354 226.393,18.374 222.473,13.214 C222.193,12.894 222.053,12.534 222.053,12.134 C222.053,11.334 222.493,10.934 223.373,10.934 C223.613,10.934 223.793,10.954 223.913,10.994 C224.433,11.154 226.433,13.674 229.913,18.554 L232.673,22.454 L232.853,21.434 C233.173,18.514 233.353,16.834 233.393,16.394 C233.753,12.834 234.213,10.794 234.773,10.274 C235.013,10.034 235.333,9.914 235.733,9.914 C236.093,9.914 236.393,10.034 236.633,10.274 C236.873,10.594 236.933,11.034 236.813,11.594 C235.653,18.714 235.073,25.874 235.073,33.074 ZM225.351,78.014 C227.231,78.014 228.691,78.254 229.731,78.734 C230.491,79.094 231.021,79.464 231.321,79.844 C231.621,80.224 231.811,80.774 231.891,81.494 L231.891,81.914 C231.891,83.114 231.431,83.714 230.511,83.714 C229.791,83.714 229.311,83.214 229.071,82.214 C228.831,81.294 227.851,80.834 226.131,80.834 C224.811,80.834 223.581,81.234 222.441,82.034 C221.301,82.834 220.411,83.914 219.771,85.274 C219.411,86.034 219.231,87.614 219.231,90.014 C219.231,92.374 219.391,93.814 219.711,94.334 C220.831,96.134 223.091,97.074 226.491,97.154 L226.911,97.154 C227.951,97.154 228.711,97.004 229.191,96.704 C229.671,96.404 230.131,95.834 230.571,94.994 C231.091,93.914 231.651,93.374 232.251,93.374 C232.531,93.374 232.831,93.534 233.151,93.854 C233.391,94.094 233.511,94.414 233.511,94.814 C233.511,95.494 233.231,96.264 232.671,97.124 C232.111,97.984 231.451,98.634 230.691,99.074 C230.131,99.394 229.641,99.594 229.221,99.674 C228.801,99.754 227.911,99.794 226.551,99.794 C224.671,99.794 223.131,99.594 221.931,99.194 C219.931,98.514 218.491,97.514 217.611,96.194 C216.731,94.874 216.291,93.034 216.291,90.674 C216.291,89.834 216.351,88.874 216.471,87.794 C216.951,82.874 219.411,79.674 223.851,78.194 C224.171,78.074 224.671,78.014 225.351,78.014 ZM214.614,13.274 C214.053,13.274 213.333,12.874 212.454,12.074 C211.573,11.314 210.853,10.934 210.294,10.934 C209.013,10.934 207.853,11.794 206.814,13.514 C205.693,15.274 205.134,18.214 205.134,22.334 C205.134,24.334 205.053,25.594 204.894,26.114 C204.733,26.634 204.333,26.894 203.694,26.894 C202.734,26.894 202.254,26.054 202.254,24.374 C202.254,21.974 201.774,17.274 200.814,10.274 C200.653,9.114 200.574,8.274 200.574,7.754 C200.574,7.314 200.653,6.994 200.814,6.794 C201.093,6.394 201.474,6.194 201.954,6.194 C202.314,6.194 202.614,6.314 202.854,6.554 C203.094,6.794 203.313,7.894 203.514,9.854 L203.874,12.794 L204.774,11.474 C206.334,9.194 208.153,8.054 210.234,8.054 C211.674,8.054 213.033,8.654 214.314,9.854 C215.193,10.734 215.634,11.394 215.634,11.834 C215.634,12.794 215.293,13.274 214.614,13.274 ZM198.772,101.294 C198.452,101.574 198.132,101.714 197.812,101.714 C197.532,101.714 197.232,101.554 196.912,101.234 C196.552,100.874 196.432,100.514 196.552,100.154 C196.832,99.234 196.972,96.134 196.972,90.854 C196.972,89.414 196.952,88.434 196.912,87.914 C196.832,86.314 196.692,85.224 196.492,84.644 C196.292,84.064 195.872,83.414 195.232,82.694 C194.392,81.734 193.632,81.254 192.952,81.254 C192.752,81.254 192.492,81.314 192.172,81.434 C189.412,82.594 187.732,87.794 187.132,97.034 C186.972,98.954 186.812,99.994 186.652,100.154 C186.492,100.354 186.152,100.454 185.632,100.454 C185.112,100.454 184.792,100.354 184.672,100.154 C184.512,99.954 184.332,97.914 184.132,94.034 C183.932,90.234 183.712,87.734 183.472,86.534 C182.952,84.294 182.192,82.534 181.192,81.254 C180.912,80.894 180.712,80.704 180.592,80.684 C180.472,80.664 180.172,80.754 179.692,80.954 C178.412,81.474 177.492,82.394 176.932,83.714 C176.572,84.434 176.332,87.054 176.212,91.574 C176.092,95.414 175.972,97.814 175.852,98.774 C175.732,99.734 175.452,100.354 175.012,100.634 C174.692,100.834 174.392,100.934 174.112,100.934 C173.472,100.934 173.052,100.634 172.852,100.034 C172.412,98.874 172.092,94.574 171.892,87.134 C171.852,86.014 171.832,84.654 171.832,83.054 C171.832,81.414 171.922,80.394 172.102,79.994 C172.282,79.594 172.692,79.394 173.332,79.394 C173.972,79.394 174.432,79.674 174.712,80.234 L175.132,81.074 L175.672,80.294 C176.072,79.734 176.792,79.214 177.832,78.734 C178.872,78.214 179.812,77.954 180.652,77.954 C181.252,77.954 181.792,78.074 182.272,78.314 C182.712,78.554 183.272,79.214 183.952,80.294 C184.632,81.374 185.172,82.494 185.572,83.654 L186.172,85.034 C186.172,84.634 186.452,83.934 187.012,82.934 C187.572,81.934 188.112,81.154 188.632,80.594 C189.952,79.154 191.332,78.434 192.772,78.434 C194.212,78.434 195.712,79.174 197.272,80.654 C198.272,81.614 198.922,82.644 199.222,83.744 C199.522,84.844 199.692,86.874 199.732,89.834 L199.732,92.174 C199.732,94.374 199.692,96.274 199.612,97.874 C199.412,99.834 199.132,100.974 198.772,101.294 ZM193.194,13.274 C192.633,13.274 191.913,12.874 191.034,12.074 C190.154,11.314 189.434,10.934 188.874,10.934 C187.593,10.934 186.434,11.794 185.394,13.514 C184.274,15.274 183.714,18.214 183.714,22.334 C183.714,24.334 183.633,25.594 183.474,26.114 C183.314,26.634 182.913,26.894 182.274,26.894 C181.314,26.894 180.834,26.054 180.834,24.374 C180.834,21.974 180.354,17.274 179.394,10.274 C179.234,9.114 179.154,8.274 179.154,7.754 C179.154,7.314 179.234,6.994 179.394,6.794 C179.673,6.394 180.054,6.194 180.534,6.194 C180.894,6.194 181.194,6.314 181.434,6.554 C181.674,6.794 181.893,7.894 182.094,9.854 L182.454,12.794 L183.354,11.474 C184.914,9.194 186.734,8.054 188.814,8.054 C190.254,8.054 191.613,8.654 192.894,9.854 C193.773,10.734 194.214,11.394 194.214,11.834 C194.214,12.794 193.874,13.274 193.194,13.274 ZM167.694,27.614 C166.653,28.094 165.194,28.334 163.314,28.334 C161.994,28.334 161.103,28.294 160.644,28.214 C160.184,28.134 159.614,27.934 158.934,27.614 C157.334,26.814 156.153,25.554 155.394,23.834 C155.114,23.234 154.974,21.774 154.974,19.454 C154.974,16.334 155.454,13.714 156.414,11.594 C157.254,9.634 158.313,8.374 159.594,7.814 C160.314,7.454 161.274,7.274 162.474,7.274 C164.474,7.274 166.173,7.674 167.574,8.474 C168.534,9.034 169.503,10.064 170.484,11.564 C171.464,13.064 172.154,14.614 172.554,16.214 C172.754,17.014 172.854,17.834 172.854,18.674 C172.854,20.234 172.593,21.734 172.074,23.174 C171.354,25.134 169.893,26.614 167.694,27.614 ZM169.974,18.254 C169.934,17.134 169.593,15.924 168.954,14.624 C168.314,13.324 167.574,12.274 166.734,11.474 C165.894,10.714 165.194,10.334 164.634,10.334 C164.394,10.334 164.214,10.434 164.094,10.634 C163.974,10.834 163.754,10.934 163.434,10.934 C163.034,10.934 162.654,10.754 162.294,10.394 L161.694,9.854 L160.854,10.454 C158.934,11.774 157.893,14.474 157.734,18.554 L157.734,19.934 C157.734,21.174 157.833,22.084 158.034,22.664 C158.234,23.244 158.654,23.814 159.294,24.374 C160.254,25.294 161.594,25.754 163.314,25.754 C165.393,25.754 167.094,25.074 168.414,23.714 C169.454,22.674 169.974,21.054 169.974,18.854 L169.974,18.254 ZM157.673,79.874 C158.192,79.714 158.753,79.634 159.353,79.634 C161.192,79.634 162.552,80.354 163.433,81.794 C163.793,82.434 164.213,82.954 164.693,83.354 L165.413,83.894 L165.413,90.314 C165.413,94.394 165.492,96.994 165.653,98.114 C165.653,98.194 165.662,98.314 165.683,98.474 C165.702,98.634 165.713,98.754 165.713,98.834 C165.713,99.914 165.293,100.454 164.453,100.454 C164.132,100.454 163.793,100.314 163.433,100.034 C163.073,99.754 162.893,99.494 162.893,99.254 C162.893,99.014 162.572,99.034 161.933,99.314 C161.213,99.634 160.133,99.794 158.693,99.794 C156.132,99.794 154.242,99.114 153.023,97.754 C151.802,96.394 151.193,94.294 151.193,91.454 C151.193,90.494 151.253,89.474 151.373,88.394 C151.892,83.754 153.992,80.914 157.673,79.874 ZM154.223,87.554 C154.163,88.074 154.133,89.154 154.133,90.794 C154.133,92.874 154.253,94.244 154.493,94.904 C154.733,95.564 155.292,96.114 156.173,96.554 C156.932,96.874 157.812,97.034 158.813,97.034 C159.653,97.034 160.313,96.914 160.793,96.674 C161.472,96.314 161.912,95.814 162.113,95.174 C162.312,94.534 162.413,93.254 162.413,91.334 L162.413,89.894 C162.372,87.374 162.293,85.834 162.173,85.274 C162.053,84.714 161.573,83.954 160.733,82.994 C160.373,82.594 159.893,82.394 159.293,82.394 C158.492,82.394 157.662,82.704 156.803,83.324 C155.942,83.944 155.273,84.754 154.793,85.754 C154.472,86.434 154.283,87.034 154.223,87.554 ZM144.775,26.234 C144.454,26.954 144.014,27.334 143.455,27.374 L143.035,27.374 C142.634,27.374 142.304,27.224 142.045,26.924 C141.784,26.624 141.355,25.934 140.755,24.854 C138.154,20.054 136.534,17.334 135.895,16.694 C135.814,16.614 135.754,16.574 135.715,16.574 C135.554,16.574 135.194,16.994 134.635,17.834 C134.114,18.674 133.214,20.354 131.935,22.874 C130.334,26.114 129.055,27.734 128.095,27.734 C127.694,27.734 127.334,27.594 127.015,27.314 C126.574,27.034 126.134,26.374 125.695,25.334 C125.254,24.294 124.414,21.894 123.175,18.134 C121.814,14.094 121.135,11.814 121.135,11.294 C121.135,11.054 121.195,10.874 121.315,10.754 C121.555,10.314 121.934,10.094 122.455,10.094 C122.654,10.094 122.875,10.174 123.115,10.334 C123.434,10.534 123.994,11.754 124.795,13.994 C125.594,16.234 126.334,18.424 127.015,20.564 C127.694,22.704 128.074,23.774 128.155,23.774 C128.275,23.774 128.974,22.514 130.255,19.994 C131.455,17.594 132.494,15.834 133.375,14.714 C133.975,13.994 134.395,13.544 134.635,13.364 C134.875,13.184 135.235,13.074 135.715,13.034 L136.135,13.034 C136.615,13.034 137.095,13.344 137.575,13.964 C138.055,14.584 139.015,16.134 140.455,18.614 C140.854,19.254 141.274,19.944 141.715,20.684 C142.154,21.424 142.495,21.994 142.735,22.394 L143.035,22.934 C143.035,22.974 143.245,22.254 143.665,20.774 C144.085,19.294 144.524,17.694 144.985,15.974 C145.444,14.254 145.735,13.114 145.855,12.554 C146.215,10.954 146.714,10.154 147.355,10.154 C147.514,10.154 147.634,10.174 147.715,10.214 C148.394,10.414 148.735,10.894 148.735,11.654 C148.735,12.694 148.034,15.634 146.635,20.474 C145.714,23.594 145.094,25.514 144.775,26.234 ZM121.914,82.274 C122.154,82.594 122.214,83.034 122.094,83.594 C120.933,90.714 120.354,97.874 120.354,105.074 C120.354,107.354 120.284,108.843 120.144,109.544 C120.003,110.243 119.673,110.613 119.154,110.654 L118.914,110.654 C118.074,110.654 117.513,110.114 117.234,109.034 C117.033,108.233 117.033,107.654 117.234,107.294 C117.434,106.934 117.573,105.534 117.654,103.094 L117.834,99.494 L116.334,97.154 C114.534,94.354 111.674,90.374 107.754,85.214 C107.474,84.894 107.334,84.534 107.334,84.134 C107.334,83.334 107.774,82.934 108.654,82.934 C108.894,82.934 109.074,82.954 109.194,82.994 C109.713,83.154 111.714,85.674 115.194,90.554 L117.954,94.454 L118.134,93.434 C118.454,90.514 118.634,88.834 118.674,88.394 C119.034,84.834 119.493,82.794 120.054,82.274 C120.294,82.034 120.614,81.914 121.014,81.914 C121.374,81.914 121.674,82.034 121.914,82.274 ZM99.715,100.454 C99.115,100.454 98.745,100.254 98.605,99.854 C98.464,99.454 98.395,98.434 98.395,96.794 L98.395,93.794 L97.555,95.174 C97.035,96.134 96.315,97.124 95.395,98.144 C94.474,99.164 93.615,99.934 92.815,100.454 C91.774,101.134 90.735,101.474 89.695,101.474 C89.215,101.474 88.755,101.394 88.315,101.234 C87.435,100.954 86.425,100.004 85.285,98.384 C84.145,96.764 83.314,95.114 82.795,93.434 C82.515,92.554 82.375,91.494 82.375,90.254 C82.375,86.494 83.554,83.274 85.915,80.594 C87.795,78.474 89.755,77.414 91.795,77.414 C93.034,77.414 94.335,77.874 95.695,78.794 L96.775,79.514 L96.775,75.854 C96.775,73.334 96.874,71.914 97.075,71.594 C97.234,71.274 97.594,71.134 98.155,71.174 C98.794,71.254 99.205,71.584 99.385,72.164 C99.565,72.744 99.655,74.054 99.655,76.094 C99.655,77.814 99.795,80.034 100.075,82.754 C100.675,87.794 100.995,92.054 101.035,95.534 L101.035,97.034 C101.035,98.514 100.954,99.454 100.795,99.854 C100.635,100.254 100.275,100.454 99.715,100.454 ZM96.655,85.694 C96.415,85.294 96.295,84.874 96.295,84.434 C96.295,83.874 96.004,83.224 95.425,82.484 C94.845,81.744 94.174,81.154 93.415,80.714 C92.734,80.354 92.194,80.174 91.795,80.174 C91.195,80.174 90.435,80.494 89.515,81.134 C88.234,82.014 87.184,83.314 86.365,85.034 C85.545,86.754 85.135,88.454 85.135,90.134 C85.135,90.454 85.174,90.934 85.255,91.574 C85.575,93.094 86.224,94.654 87.205,96.254 C88.185,97.854 88.995,98.654 89.635,98.654 C90.555,98.654 91.755,97.854 93.235,96.254 C95.235,94.134 96.415,91.474 96.775,88.274 C96.855,87.314 96.895,86.794 96.895,86.714 C96.895,86.234 96.814,85.894 96.655,85.694 ZM96.655,10.634 L94.435,10.994 L94.435,14.894 C94.435,17.774 94.534,20.314 94.735,22.514 C94.814,24.034 94.855,24.914 94.855,25.154 C94.855,25.834 94.784,26.284 94.645,26.504 C94.504,26.724 94.255,26.834 93.895,26.834 L93.535,26.834 C92.974,26.794 92.554,26.474 92.275,25.874 C91.994,25.314 91.855,24.734 91.855,24.134 L91.855,17.294 L91.795,11.294 L89.935,11.534 C89.134,11.614 88.654,11.654 88.495,11.654 C87.415,11.654 86.875,11.274 86.875,10.514 C86.875,9.794 87.044,9.334 87.385,9.134 C87.724,8.934 88.615,8.774 90.055,8.654 L91.795,8.474 L91.795,5.294 C91.795,3.174 91.934,1.914 92.215,1.514 C92.455,1.154 92.794,0.974 93.235,0.974 C93.634,0.974 93.994,1.134 94.315,1.454 C94.594,1.734 94.735,2.214 94.735,2.894 C94.735,3.014 94.694,3.714 94.615,4.994 L94.435,8.054 L96.835,7.934 L99.235,7.874 L99.535,8.594 C99.614,8.834 99.655,9.014 99.655,9.134 C99.655,9.854 98.654,10.354 96.655,10.634 ZM79.135,11.714 C78.735,11.714 78.395,11.574 78.115,11.294 C77.835,11.014 77.695,10.634 77.695,10.154 C77.695,9.394 77.545,8.194 77.245,6.554 C76.945,4.914 76.695,3.954 76.495,3.674 C76.255,3.314 76.135,2.874 76.135,2.354 C76.135,1.834 76.295,1.474 76.615,1.274 C76.775,1.154 77.015,1.094 77.335,1.094 C77.935,1.094 78.415,1.314 78.775,1.754 C79.415,2.474 79.915,4.654 80.275,8.294 C80.355,9.334 80.395,9.914 80.395,10.034 C80.395,10.554 80.315,10.914 80.155,11.114 C79.915,11.514 79.575,11.714 79.135,11.714 ZM68.816,30.794 C68.456,30.794 68.135,30.714 67.856,30.554 C67.616,30.434 67.466,29.974 67.406,29.174 C67.346,28.374 67.316,26.174 67.316,22.574 C67.316,18.254 67.226,15.324 67.046,13.784 C66.866,12.244 66.455,11.114 65.816,10.394 C65.456,9.914 65.116,9.674 64.796,9.674 C64.475,9.674 64.076,9.754 63.596,9.914 C61.235,10.554 59.435,13.414 58.196,18.494 C57.796,20.014 57.395,22.774 56.996,26.774 C56.915,27.694 56.776,28.294 56.576,28.574 C56.375,28.854 56.036,28.994 55.556,28.994 C54.916,28.994 54.515,28.694 54.356,28.094 C54.196,27.494 54.056,25.794 53.936,22.994 C53.735,17.914 53.576,14.594 53.456,13.034 C53.336,11.114 53.276,9.834 53.276,9.194 C53.276,8.514 53.435,8.014 53.756,7.694 C54.116,7.414 54.365,7.274 54.506,7.274 C54.646,7.274 54.916,7.414 55.316,7.694 C55.595,7.894 55.775,8.204 55.856,8.624 C55.936,9.044 56.036,9.994 56.156,11.474 C56.315,13.314 56.416,14.234 56.456,14.234 C56.495,14.234 56.576,14.074 56.696,13.754 C57.896,10.354 59.756,8.214 62.276,7.334 C62.996,7.094 63.776,6.974 64.616,6.974 C65.656,6.974 66.455,7.134 67.016,7.454 C68.135,8.174 68.996,9.674 69.596,11.954 C69.875,12.954 70.016,16.254 70.016,21.854 C70.016,27.334 69.916,30.194 69.716,30.434 C69.515,30.674 69.215,30.794 68.816,30.794 ZM60.355,80.294 C60.795,80.774 61.015,81.354 61.015,82.034 C61.015,82.954 60.595,83.414 59.755,83.414 L59.575,83.414 C59.055,83.374 58.675,83.094 58.435,82.574 C58.155,81.974 57.515,81.674 56.515,81.674 C55.755,81.674 55.115,81.834 54.595,82.154 C53.475,82.714 52.915,83.614 52.915,84.854 C52.915,84.934 52.925,85.054 52.945,85.214 C52.965,85.374 52.975,85.494 52.975,85.574 C53.055,86.534 53.295,87.234 53.695,87.674 C54.095,88.114 54.795,88.454 55.795,88.694 C57.435,89.094 58.555,89.644 59.155,90.344 C59.755,91.044 60.095,92.194 60.175,93.794 L60.175,94.274 C60.175,95.994 59.745,97.514 58.885,98.834 C58.025,100.154 56.915,100.954 55.555,101.234 C55.035,101.354 54.495,101.414 53.935,101.414 C52.735,101.414 51.615,101.054 50.575,100.334 C49.815,99.854 49.225,99.224 48.805,98.444 C48.385,97.664 48.175,96.914 48.175,96.194 C48.175,95.034 48.655,94.454 49.615,94.454 C49.975,94.454 50.305,94.634 50.605,94.994 C50.905,95.354 51.055,95.774 51.055,96.254 C51.055,96.894 51.355,97.454 51.955,97.934 C52.555,98.414 53.275,98.654 54.115,98.654 C54.915,98.654 55.575,98.374 56.095,97.814 C57.015,96.814 57.475,95.574 57.475,94.094 C57.475,93.854 57.435,93.534 57.355,93.134 C57.195,92.534 56.905,92.104 56.485,91.844 C56.065,91.584 55.335,91.374 54.295,91.214 C52.735,90.934 51.595,90.034 50.875,88.514 C50.475,87.674 50.275,86.854 50.275,86.054 C50.275,85.494 50.295,85.034 50.335,84.674 C50.415,83.234 50.615,82.204 50.935,81.584 C51.255,80.964 51.935,80.354 52.975,79.754 C53.855,79.234 54.875,78.974 56.035,78.974 C58.195,78.974 59.635,79.414 60.355,80.294 ZM41.936,27.614 C40.895,28.094 39.436,28.334 37.556,28.334 C36.236,28.334 35.345,28.294 34.886,28.214 C34.426,28.134 33.856,27.934 33.176,27.614 C31.576,26.814 30.395,25.554 29.636,23.834 C29.356,23.234 29.216,21.774 29.216,19.454 C29.216,16.334 29.696,13.714 30.656,11.594 C31.496,9.634 32.555,8.374 33.836,7.814 C34.556,7.454 35.516,7.274 36.716,7.274 C38.716,7.274 40.415,7.674 41.816,8.474 C42.776,9.034 43.745,10.064 44.726,11.564 C45.706,13.064 46.396,14.614 46.796,16.214 C46.996,17.014 47.096,17.834 47.096,18.674 C47.096,20.234 46.835,21.734 46.316,23.174 C45.596,25.134 44.135,26.614 41.936,27.614 ZM44.216,18.254 C44.176,17.134 43.835,15.924 43.196,14.624 C42.556,13.324 41.816,12.274 40.976,11.474 C40.136,10.714 39.436,10.334 38.876,10.334 C38.636,10.334 38.456,10.434 38.336,10.634 C38.216,10.834 37.996,10.934 37.676,10.934 C37.276,10.934 36.896,10.754 36.536,10.394 L35.936,9.854 L35.096,10.454 C33.176,11.774 32.135,14.474 31.976,18.554 L31.976,19.934 C31.976,21.174 32.075,22.084 32.276,22.664 C32.476,23.244 32.896,23.814 33.536,24.374 C34.496,25.294 35.836,25.754 37.556,25.754 C39.635,25.754 41.336,25.074 42.656,23.714 C43.696,22.674 44.216,21.054 44.216,18.854 L44.216,18.254 ZM30.776,79.874 L31.076,80.594 C31.156,80.834 31.196,81.014 31.196,81.134 C31.196,81.854 30.196,82.354 28.196,82.634 L25.976,82.994 L25.976,86.894 C25.976,89.774 26.076,92.314 26.276,94.514 C26.356,96.034 26.396,96.914 26.396,97.154 C26.396,97.834 26.326,98.284 26.186,98.504 C26.046,98.724 25.796,98.834 25.436,98.834 L25.076,98.834 C24.516,98.794 24.096,98.474 23.816,97.874 C23.536,97.314 23.396,96.734 23.396,96.134 L23.396,89.294 L23.336,83.294 L21.476,83.534 C20.676,83.614 20.196,83.654 20.036,83.654 C18.956,83.654 18.416,83.274 18.416,82.514 C18.416,81.794 18.586,81.334 18.926,81.134 C19.266,80.934 20.156,80.774 21.596,80.654 L23.336,80.474 L23.336,77.294 C23.336,75.174 23.476,73.914 23.756,73.514 C23.996,73.154 24.336,72.974 24.776,72.974 C25.176,72.974 25.536,73.134 25.856,73.454 C26.136,73.734 26.276,74.214 26.276,74.894 C26.276,75.014 26.236,75.714 26.156,76.994 L25.976,80.054 L28.376,79.934 L30.776,79.874 ZM18.417,25.124 C16.737,25.984 14.237,26.594 10.917,26.954 C8.556,27.194 6.497,27.314 4.737,27.314 C3.336,27.314 2.496,27.234 2.217,27.074 C1.577,26.754 1.257,26.094 1.257,25.094 C1.257,24.854 1.337,24.494 1.497,24.014 C1.697,23.534 1.797,23.054 1.797,22.574 C1.797,22.174 1.637,20.434 1.317,17.354 C0.437,9.354 -0.003,4.394 -0.003,2.474 L-0.003,1.874 C0.156,0.994 0.717,0.554 1.677,0.554 C2.196,0.554 2.856,0.454 3.657,0.254 C4.457,0.094 5.757,0.014 7.557,0.014 C9.917,0.014 11.597,0.134 12.597,0.374 C19.476,2.134 22.917,7.134 22.917,15.374 L22.917,16.694 C22.836,18.654 22.557,20.174 22.077,21.254 C21.317,22.974 20.097,24.264 18.417,25.124 ZM18.477,7.544 C17.357,5.684 15.456,4.294 12.777,3.374 C11.937,3.054 10.757,2.854 9.237,2.774 L8.097,2.774 C5.057,2.774 3.357,2.954 2.997,3.314 C2.957,3.354 2.937,3.574 2.937,3.974 C2.937,6.814 3.317,11.174 4.077,17.054 C4.397,19.614 4.557,21.614 4.557,23.054 L4.557,24.734 L5.817,24.614 C7.817,24.414 9.017,24.314 9.417,24.314 C14.256,23.994 17.316,23.094 18.597,21.614 C18.917,21.294 19.257,20.694 19.617,19.814 C19.977,19.014 20.157,17.614 20.157,15.614 C20.157,12.094 19.596,9.404 18.477,7.544 ZM3.537,77.834 C3.537,76.114 3.456,75.014 3.297,74.534 C3.137,74.054 2.736,73.814 2.097,73.814 C0.777,73.814 0.117,73.394 0.117,72.554 C0.117,71.874 0.287,71.444 0.627,71.264 C0.966,71.084 1.877,70.954 3.357,70.874 C5.477,70.754 6.816,70.694 7.377,70.694 C7.937,70.694 8.297,70.774 8.457,70.934 C8.657,71.134 8.757,71.474 8.757,71.954 C8.757,72.474 8.657,72.814 8.457,72.974 C8.297,73.134 7.817,73.294 7.017,73.454 C6.377,73.534 6.057,73.654 6.057,73.814 C6.137,74.014 6.257,76.354 6.417,80.834 C6.857,91.754 7.277,97.214 7.677,97.214 C7.917,97.214 8.436,97.034 9.237,96.674 C9.917,96.394 10.296,96.254 10.377,96.254 C10.497,96.254 10.716,96.354 11.037,96.554 C11.477,96.874 11.697,97.234 11.697,97.634 C11.697,98.514 11.057,99.154 9.777,99.554 C9.336,99.674 7.677,99.814 4.797,99.974 C2.796,100.054 1.776,100.094 1.737,100.094 C0.977,100.094 0.516,99.934 0.357,99.614 C0.197,99.334 0.117,99.074 0.117,98.834 C0.117,97.874 1.037,97.354 2.877,97.274 C3.516,97.274 3.936,97.134 4.137,96.854 C4.217,96.694 4.257,96.294 4.257,95.654 C4.257,94.574 4.097,90.934 3.777,84.734 C3.617,81.614 3.537,79.314 3.537,77.834 ZM38.756,73.094 C39.356,73.094 39.836,73.314 40.196,73.754 C40.835,74.474 41.336,76.654 41.696,80.294 C41.776,81.334 41.816,81.914 41.816,82.034 C41.816,82.554 41.735,82.914 41.576,83.114 C41.336,83.514 40.996,83.714 40.556,83.714 C40.156,83.714 39.815,83.574 39.536,83.294 C39.256,83.014 39.116,82.634 39.116,82.154 C39.116,81.394 38.966,80.194 38.666,78.554 C38.366,76.914 38.116,75.954 37.916,75.674 C37.676,75.314 37.556,74.874 37.556,74.354 C37.556,73.834 37.715,73.474 38.036,73.274 C38.195,73.154 38.435,73.094 38.756,73.094 ZM129.503,79.274 C129.643,79.274 129.913,79.414 130.313,79.694 C130.593,79.894 130.773,80.204 130.853,80.624 C130.933,81.044 131.033,81.994 131.153,83.474 C131.313,85.314 131.413,86.234 131.453,86.234 C131.493,86.234 131.573,86.074 131.693,85.754 C132.893,82.354 134.753,80.214 137.273,79.334 C137.993,79.094 138.773,78.974 139.613,78.974 C140.653,78.974 141.453,79.134 142.013,79.454 C143.133,80.174 143.993,81.674 144.593,83.954 C144.873,84.954 145.013,88.254 145.013,93.854 C145.013,99.334 144.913,102.194 144.713,102.434 C144.513,102.674 144.213,102.794 143.813,102.794 C143.453,102.794 143.133,102.714 142.853,102.554 C142.613,102.434 142.463,101.974 142.403,101.174 C142.343,100.374 142.313,98.174 142.313,94.574 C142.313,90.254 142.223,87.324 142.043,85.784 C141.863,84.244 141.453,83.114 140.813,82.394 C140.453,81.914 140.113,81.674 139.793,81.674 C139.473,81.674 139.073,81.754 138.593,81.914 C136.233,82.554 134.433,85.414 133.193,90.494 C132.793,92.014 132.393,94.774 131.993,98.774 C131.913,99.694 131.773,100.294 131.573,100.574 C131.373,100.854 131.033,100.994 130.553,100.994 C129.913,100.994 129.513,100.694 129.353,100.094 C129.193,99.494 129.053,97.794 128.933,94.994 C128.733,89.914 128.573,86.594 128.453,85.034 C128.333,83.114 128.273,81.834 128.273,81.194 C128.273,80.514 128.433,80.014 128.753,79.694 C129.113,79.414 129.363,79.274 129.503,79.274 ZM207.232,80.534 C207.672,80.534 207.991,80.654 208.192,80.894 C208.632,81.454 208.951,85.154 209.152,91.994 C209.191,93.114 209.212,94.414 209.212,95.894 C209.212,97.134 209.131,97.904 208.972,98.204 C208.812,98.504 208.471,98.654 207.952,98.654 C207.312,98.654 206.911,98.374 206.752,97.814 C206.592,97.254 206.491,95.834 206.452,93.554 C206.452,90.954 206.332,88.214 206.092,85.334 C205.972,83.774 205.912,82.674 205.912,82.034 C205.912,81.434 205.972,81.074 206.092,80.954 C206.371,80.674 206.752,80.534 207.232,80.534 ZM207.412,72.764 C207.052,72.464 206.872,72.114 206.872,71.714 C206.872,70.674 207.352,70.154 208.312,70.154 C208.752,70.154 209.152,70.304 209.512,70.604 C209.872,70.904 210.052,71.294 210.052,71.774 C210.052,72.734 209.611,73.214 208.732,73.214 C208.212,73.214 207.772,73.064 207.412,72.764 Z" class="cls-1"/>
</svg>
