<?xml version="1.0" encoding="utf-8"?>
<!-- Generator: Adobe Illustrator 18.1.1, SVG Export Plug-In . SVG Version: 6.00 Build 0)  -->
<svg version="1.1" id="Layer_1" xmlns="http://www.w3.org/2000/svg" xmlns:xlink="http://www.w3.org/1999/xlink" x="0px" y="0px"
	 viewBox="0 0 13.3 14.4" enable-background="new 0 0 13.3 13.3" xml:space="preserve">
		<rect x="0" y="0.6" width="13.3" height="13.3"/>
		<path fill="#FFFFFF" d="M2.2,5.3c0-0.8,0.3-1.5,0.8-2c0.6-0.6,1.2-0.8,2-0.8H11v2H5.1c-0.2,0-0.4,0.1-0.6,0.2
				C4.3,4.9,4.2,5.1,4.2,5.3c0,0.2,0.1,0.4,0.2,0.6s0.4,0.2,0.6,0.2h3c0.8,0,1.5,0.3,2,0.8C10.7,7.6,11,8.2,11,9s-0.3,1.5-0.8,2
				c-0.6,0.6-1.2,0.8-2,0.8H2.2v-2h5.9c0.2,0,0.4-0.1,0.6-0.2C8.9,9.5,8.9,9.3,8.9,9S8.9,8.6,8.7,8.4C8.5,8.3,8.3,8.2,8.1,8.2h-3
				c-0.8,0-1.5-0.3-2-0.8C2.5,6.8,2.2,6.1,2.2,5.3z"/>
</svg>
